/vscmnt/brussel_pixiu_data/_data_brussel/112/vsc11236/PredSimResults/SUBJ06_Dhondt2024_3seg/weighted-LRposFixed/worker_02.mot
version=1
nRows=4
nColumns=124
inDegrees=yes
endheader
                time	         pelvis_tilt	         pelvis_list	     pelvis_rotation	           pelvis_tx	           pelvis_ty	           pelvis_tz	       hip_flexion_r	     hip_adduction_r	      hip_rotation_r	        knee_angle_r	       ankle_angle_r	    subtalar_angle_r	         mtp_angle_r	       hip_flexion_l	     hip_adduction_l	      hip_rotation_l	        knee_angle_l	       ankle_angle_l	    subtalar_angle_l	         mtp_angle_l	    lumbar_extension	      lumbar_bending	     lumbar_rotation	          arm_flex_r	           arm_add_r	           arm_rot_r	        elbow_flex_r	          arm_flex_l	           arm_add_l	           arm_rot_l	        elbow_flex_l	glut_med1_r/activation	glut_med2_r/activation	glut_med3_r/activation	glut_min1_r/activation	glut_min2_r/activation	glut_min3_r/activation	semimem_r/activation	semiten_r/activation	bifemlh_r/activation	bifemsh_r/activation	    sar_r/activation	add_long_r/activation	add_brev_r/activation	add_mag1_r/activation	add_mag2_r/activation	add_mag3_r/activation	    tfl_r/activation	   pect_r/activation	   grac_r/activation	glut_max1_r/activation	glut_max2_r/activation	glut_max3_r/activation	iliacus_r/activation	  psoas_r/activation	quad_fem_r/activation	    gem_r/activation	   peri_r/activation	rect_fem_r/activation	vas_med_r/activation	vas_int_r/activation	vas_lat_r/activation	med_gas_r/activation	lat_gas_r/activation	 soleus_r/activation	tib_post_r/activation	flex_dig_r/activation	flex_hal_r/activation	tib_ant_r/activation	per_brev_r/activation	per_long_r/activation	per_tert_r/activation	ext_dig_r/activation	ext_hal_r/activation	glut_med1_l/activation	glut_med2_l/activation	glut_med3_l/activation	glut_min1_l/activation	glut_min2_l/activation	glut_min3_l/activation	semimem_l/activation	semiten_l/activation	bifemlh_l/activation	bifemsh_l/activation	    sar_l/activation	add_long_l/activation	add_brev_l/activation	add_mag1_l/activation	add_mag2_l/activation	add_mag3_l/activation	    tfl_l/activation	   pect_l/activation	   grac_l/activation	glut_max1_l/activation	glut_max2_l/activation	glut_max3_l/activation	iliacus_l/activation	  psoas_l/activation	quad_fem_l/activation	    gem_l/activation	   peri_l/activation	rect_fem_l/activation	vas_med_l/activation	vas_int_l/activation	vas_lat_l/activation	med_gas_l/activation	lat_gas_l/activation	 soleus_l/activation	tib_post_l/activation	flex_dig_l/activation	flex_hal_l/activation	tib_ant_l/activation	per_brev_l/activation	per_long_l/activation	per_tert_l/activation	ext_dig_l/activation	ext_hal_l/activation	 ercspn_r/activation	 ercspn_l/activation	 intobl_r/activation	 intobl_l/activation	 extobl_r/activation	 extobl_l/activation	
          0.00000000	         -2.93016171	         -1.80044710	          1.87579134	          0.00000000	          0.93248280	         -0.00186504	         24.58534007	          3.95144296	          3.41070316	         -5.40296773	          5.92559191	         -5.36105309	          0.18753378	        -14.84343180	          1.02910867	          9.69724874	         -6.28466863	          5.99490513	          1.37912120	         17.54811762	         -4.44925247	          1.01655709	         -1.38555627	         -3.49541592	        -13.44971054	         17.94847107	         25.98967290	          0.67072540	        -13.49492029	         19.19302288	         47.24767269	          0.01063576	          0.01000618	          0.01001321	          0.01000204	          0.01000214	          0.01000385	          0.23265550	          0.04310095	          0.03167080	          0.01000087	          0.01000101	          0.08694702	          0.18265976	          0.16268288	          0.15006372	          0.08319545	          0.01000179	          0.01719631	          0.06876926	          0.01190394	          0.01402415	          0.06344773	          0.01097683	          0.01000585	          0.01707380	          0.01001806	          0.01000206	          0.01097634	          0.09911938	          0.09810867	          0.08241814	          0.01000044	          0.01000091	          0.01000218	          0.01147320	          0.01001320	          0.01003247	          0.23994160	          0.22862358	          0.14357193	          0.11812070	          0.32740895	          0.03473200	          0.26812083	          0.13047040	          0.07489251	          0.36365796	          0.29149136	          0.18689924	          0.01002786	          0.01000266	          0.01000237	          0.05231645	          0.10483205	          0.01000030	          0.01000040	          0.01000081	          0.01000340	          0.01000284	          0.43192531	          0.01000156	          0.01000186	          0.02005260	          0.01683139	          0.01001468	          0.29350771	          0.45254034	          0.01677701	          0.01684535	          0.08764130	          0.32403727	          0.01000239	          0.01000259	          0.01000225	          0.40370951	          0.48477188	          0.41515743	          0.30308009	          0.34520526	          0.42447385	          0.01373987	          0.13384456	          0.25000822	          0.01690971	          0.01683244	          0.01415185	          0.02615257	          0.01000004	          0.04599566	          0.01000009	          0.07364650	          0.01000020	
          0.01137529	         -2.92739597	         -2.11527273	          2.02208895	          0.01511149	          0.93197865	         -0.00168733	         23.63910269	          4.47289842	          3.54408699	         -4.49814634	          4.75478941	         -5.61745923	          0.20414908	        -14.96320644	          0.70657584	          9.39872039	         -7.68869186	          5.25828159	          1.67877733	         18.83433116	         -4.28862690	          1.50211026	         -1.44099104	         -3.81487487	        -13.45146776	         17.79721943	         25.02415939	          0.12244607	        -13.52048124	         19.17526382	         48.63886135	          0.01189593	          0.01006302	          0.01000056	          0.01189641	          0.01189588	          0.01001420	          0.20307539	          0.03623239	          0.02662390	          0.01000085	          0.01000293	          0.07309115	          0.19961471	          0.17759486	          0.14988338	          0.06993859	          0.01000503	          0.02359600	          0.05781324	          0.01000731	          0.01178930	          0.05333703	          0.01002001	          0.01000257	          0.19444085	          0.01000185	          0.01000113	          0.01415219	          0.08332400	          0.08247450	          0.06928442	          0.01000020	          0.01000040	          0.01000008	          0.01000030	          0.01000227	          0.01000171	          0.24600542	          0.21549233	          0.13732744	          0.11477766	          0.36209307	          0.02919737	          0.29755137	          0.10967701	          0.06295670	          0.30570210	          0.24503591	          0.15711270	          0.01000885	          0.01000157	          0.01000126	          0.04397870	          0.08812526	          0.01882116	          0.01000759	          0.01000635	          0.01001828	          0.01000393	          0.36308930	          0.04248080	          0.01169251	          0.01685796	          0.01415047	          0.01001395	          0.24673095	          0.38041796	          0.01410420	          0.01416138	          0.07367370	          0.29129174	          0.01001296	          0.01001519	          0.01001530	          0.36825355	          0.44355248	          0.38866943	          0.29383271	          0.34432808	          0.42836677	          0.01155014	          0.11251405	          0.24329717	          0.01421482	          0.01414983	          0.01189656	          0.02198459	          0.01261668	          0.03866522	          0.01683391	          0.06190926	          0.01000033	
          0.02275059	         -2.92054223	         -2.43571443	          2.15685826	          0.03049623	          0.93147402	         -0.00151985	         22.68422037	          4.95115428	          3.70409470	         -4.12328079	          3.19384597	         -5.85362368	          0.21698985	        -15.00647970	          0.37803413	          9.07441439	         -9.23619375	          4.37685376	          2.01886325	         20.16264067	         -4.11118898	          1.99985823	         -1.48753361	         -4.15240649	        -13.46633216	         17.70765473	         24.07628695	         -0.47855381	        -13.54636529	         19.15251161	         50.00749047	          0.01000016	          0.01000024	          0.01000555	          0.01000068	          0.01000049	          0.01000049	          0.17071076	          0.03046471	          0.02238192	          0.01001731	          0.01004613	          0.06144273	          0.16780278	          0.14929693	          0.12599740	          0.05879258	          0.01000063	          0.01984305	          0.11181560	          0.01000229	          0.02061625	          0.04483724	          0.01414471	          0.01414970	          0.20418983	          0.04843938	          0.01318659	          0.01189697	          0.07004478	          0.06933071	          0.05824272	          0.01415154	          0.01415408	          0.01281886	          0.01415198	          0.01358039	          0.01415226	          0.20701615	          0.19146615	          0.12663669	          0.09648552	          0.42494181	          0.02454436	          0.25013097	          0.09219751	          0.05292313	          0.25698289	          0.20598407	          0.13207329	          0.01006520	          0.01000706	          0.01000518	          0.03696977	          0.07408084	          0.01582522	          0.01188249	          0.01185546	          0.01038530	          0.01188207	          0.30522339	          0.03572794	          0.01001225	          0.01417231	          0.01189708	          0.01002848	          0.20740924	          0.31979116	          0.01185680	          0.01190496	          0.06193216	          0.24487026	          0.01195794	          0.01193505	          0.01191113	          0.31586221	          0.38861481	          0.35559453	          0.27133017	          0.28945550	          0.36011985	          0.01000007	          0.09922236	          0.25292895	          0.01194944	          0.01189477	          0.01000096	          0.01848087	          0.01752127	          0.03250307	          0.01415119	          0.05204261	          0.01415040	
          0.03412588	         -2.91099721	         -2.77275167	          2.27717434	          0.04605025	          0.93101339	         -0.00137497	         21.70842449	          5.37229866	          3.89893364	         -3.86319117	          1.41903100	         -6.07710274	          0.21757845	        -14.94628383	          0.03690220	          8.71543579	        -10.95660049	          3.33574084	          2.37967273	         21.49656061	         -3.92442217	          2.52247011	         -1.52363298	         -4.48788275	        -13.49858156	         17.70073573	         23.13904712	         -1.11462866	        -13.56528656	         19.12551300	         51.33635978	          0.23500771	          0.22411448	          0.22541164	          0.10536994	          0.10176419	          0.17310185	          0.14350416	          0.05167144	          0.02969063	          0.01437899	          0.01026688	          0.05165055	          0.14105976	          0.12550372	          0.10591765	          0.04942317	          0.01001695	          0.01668220	          0.09399617	          0.08445992	          0.02441060	          0.03769186	          0.01189450	          0.01189564	          0.17164776	          0.04072062	          0.07022142	          0.01000117	          0.05888197	          0.05828177	          0.04896085	          0.01189620	          0.01189836	          0.01077590	          0.01189660	          0.01141637	          0.01189702	          0.39429338	          0.25371912	          0.13554562	          0.48615748	          0.51731674	          0.21946994	          0.27905279	          0.07750377	          0.04448864	          0.36662305	          0.17315615	          0.11102449	          0.01001559	          0.01000086	          0.01000053	          0.03107787	          0.06227473	          0.01330404	          0.01000130	          0.01000139	          0.01000417	          0.01000185	          0.25658001	          0.11085490	          0.01000230	          0.01191469	          0.01000375	          0.01000177	          0.17435446	          0.26882778	          0.01000029	          0.01000821	          0.05206190	          0.20584612	          0.01005314	          0.01003396	          0.01001366	          0.26552235	          0.32668032	          0.29892241	          0.24247012	          0.24332509	          0.30272736	          0.01000011	          0.10804226	          0.22465677	          0.01004520	          0.01000016	          0.01000071	          0.02488456	          0.04656795	          0.02732307	          0.01189589	          0.04374844	          0.01189532	
